<svg xmlns="http://www.w3.org/2000/svg" xmlns:xlink="http://www.w3.org/1999/xlink" width="395" height="216" viewBox="0 0 395 216">
  <defs>
    <clipPath id="clip-Logo">
      <rect width="395" height="216"/>
    </clipPath>
  </defs>
  <g id="Logo" clip-path="url(#clip-Logo)">
    <rect width="395" height="216" fill="rgba(255,255,255,0)"/>
    <g id="Group_3" data-name="Group 3" transform="translate(-338 254.129)">
      <path id="Path_2" data-name="Path 2" d="M263.033,124.6c-4.444.014-8.887.013-13.331.057a1.21,1.21,0,0,1-1.228-.86c-1.482-3.071-2.989-6.129-4.487-9.191-.074-.079-.147-.16-.22-.239-.98-2.482-2.259-4.822-3.43-7.211-1.853-3.78-3.742-7.542-5.617-11.311l-.219-.237c-.943-2.463-2.238-4.758-3.4-7.119-1.786-3.634-3.594-7.259-5.393-10.888-.074-.079-.147-.16-.22-.239-.975-2.437-2.221-4.744-3.385-7.092q-2.833-5.715-5.662-11.43l-.219-.237a77.17,77.17,0,0,0-3.643-7.543,38.583,38.583,0,0,1-2.034-4.315.08.08,0,0,0,.016-.122q13.493-.013,26.987-.038a1.16,1.16,0,0,1,1.28.776c.41,1.02.884,2.014,1.331,3.019-.031.174.059.24.218.245q2.087,4.244,4.167,8.489c.2.413.339.858.505,1.289-.03.174.059.24.219.245q4.574,9.32,9.151,18.64a16.285,16.285,0,0,0,1.634,3.24,2.423,2.423,0,0,0,.734-1.16c3.542-7.219,7.049-14.453,10.612-21.661,1.407-2.845,2.979-5.607,4.164-8.56.074-.078.147-.158.22-.236q3.911-7.88,7.816-15.76c.446-.9.822-1.841,1.231-2.763l.22-.237,3.929-8.055h-1.492q-46.181,0-92.363-.032c-1.294,0-1.506.379-1.505,1.568q.05,48.671.026,97.344c0,.557-.021,1.113-.033,1.668l-.2.261q-11.319.027-22.638.054c-3.031.006-3.031,0-3.031-2.962V26.7c0-2.6,0-2.6-2.524-2.6q-41.361.006-82.723.019a122.74,122.74,0,0,0-12.491.8A53,53,0,0,0,58,26.267,46.055,46.055,0,0,0,38.278,36.586,33.412,33.412,0,0,0,27.36,55.656a42.044,42.044,0,0,0-.62,9.425,4.863,4.863,0,0,0,.241.976c-.371.661.212.44.477.514a1.953,1.953,0,0,0-.288,1.238,21.5,21.5,0,0,0,1.679,6.177c.089.2.216.363.107.585-.289.376,0,.425.273.482.019.1.038.2.057.3l.01.2a21.355,21.355,0,0,0,4.388,7.19.916.916,0,0,0,.459,1.041A31.436,31.436,0,0,0,39.6,89.249l.2.187a23.688,23.688,0,0,0,3.661,2.658l.27.165c.077,0,.156.006.234.012l.1.343.353-.333a12.268,12.268,0,0,0,5.1,3.277c2.421.855,4.655,2.278,7.315,2.409.058.3.121.6.5.246a4.805,4.805,0,0,0,2.587.523c.045.5.414.475.769.472,2.274.221,4.52.665,6.784.911s4.59.161,6.887.192c1.023.014,2.045-.043,3.069-.068.65.354.446-.206.512-.477,1.392.812,2.813.286,4.231.1a4.124,4.124,0,0,1,1.942-.151c.535.062.83-.137.78-.713l.766.016c.042.222.12.433.394.408.435-.041.359-.4.384-.682.423.182.869.432,1.314.187a5.735,5.735,0,0,1,2.541-.5c.358.009.727.038.777-.466a18.644,18.644,0,0,0,5.735-1.754,42.992,42.992,0,0,0,6.9-3.177l.232-.178a5.852,5.852,0,0,1,1.779-1.1l.278-.171.49-.349a.709.709,0,0,0,.811-.676l1.856-1.359c.21-.013.392-.07.457-.3A31.433,31.433,0,0,0,112.5,85.73a1.868,1.868,0,0,0,.462-1.135c-.027-4.3-.035-8.6-.05-12.892.023-.161-.014-.274-.211-.251-.513-.02-1.025-.06-1.538-.06q-19.5,0-38.99.023c-1.105,0-1.444-.225-1.434-1.394.06-7.322.046-14.644.01-21.967,0-.926.183-1.241,1.188-1.24q32.942.045,65.884.005c.926,0,1.267.2,1.265,1.2q-.045,22.16,0,44.319a3.082,3.082,0,0,1-.674,1.875A57.735,57.735,0,0,1,131,103.2c-.73.676-1.2,1.622-2.09,2.15-.142.038-.24.111-.221.277l-2.445,2.312c-.448.049-.421.384-.42.7l-.806.318c-.469.031-.492.361-.481.713l-.8.318a.5.5,0,0,0-.516.3l-4.371,3.041c-.413.077-.82.166-1.011.609a48.174,48.174,0,0,1-6.7,3.506c-.5.016-.506.368-.5.729-.253.087-.436.4-.766.236l-.093-.3-.173.229q-3.367,1.228-6.735,2.454c-.315.114-.65.174-.976.259-.36-.011-.731-.036-.78.469-2.448.563-4.928,1.017-7.332,1.727-1.848.546-3.762.675-5.619,1.2a20.678,20.678,0,0,1-4.57.426c-3.615.167-7.236.192-10.855.239-1.745.023-3.488.073-5.228.127a19.754,19.754,0,0,1-3-.37c-2.907-.379-5.818-.69-8.71-1.247-3.247-.626-6.4-1.574-9.609-2.309-.409-.094-.729-.459-1.19-.364-.068-.457-.421-.416-.745-.424-.768.09-1.368-.457-2.087-.548-.025-.164-.044-.355-.248-.37s-.244.173-.27.337l-.253.023c.056-.571-.244-.765-.767-.719a73.993,73.993,0,0,1-6.968-3.167l-.233-.175-.284-.093-.218-.158-5.7-3.434-.263-.16-.51-.363a.288.288,0,0,0-.189-.152,15.882,15.882,0,0,0-3.749-2.577c-.077-.031-.185-.035-.232-.091-2.39-2.851-5.505-4.967-7.85-7.9-2.1-2.621-4.071-5.317-5.979-8.071a1.27,1.27,0,0,0-.573-1.159,42.524,42.524,0,0,1-2.765-5.445c-.044-.514-.08-1.032-.685-1.239A85.8,85.8,0,0,1,1.014,72.945a2.811,2.811,0,0,1,.059-.762c.28-.689-.31-.381-.548-.477a4.128,4.128,0,0,0,.251-1.559c.327-.676-.264-.41-.511-.5A43.228,43.228,0,0,0,0,58.862c.27-.069.838.139.479-.514a8.7,8.7,0,0,0-.212-2.826c.232-.1.86.21.52-.495L.77,53.721c.473-.082.6-.315.321-.727-.1-1.585.523-3.051.766-4.58.116-.723.337-1.43.511-2.144.269-.06.534-.122.258-.476.281-1.712,1.129-3.251,1.521-4.93l.189-.239c.04-.173.08-.347.12-.52.465-.089.385-.454.392-.774l.055-.263.2-.245a47.306,47.306,0,0,1,4.18-7.893c.18-.278.309-.589.462-.885l-.008-.124a45.206,45.206,0,0,0,3.374-4.185,61.932,61.932,0,0,1,7.17-7.34c1.932-1.639,3.873-3.257,5.905-4.77l.268-.167.485-.335.29-.194,2.306-1.616c.088-.049.175-.1.262-.15l1.018-.612.269-.158,1.019-.614.267-.156c2.032-1.053,4.1-2.035,6.085-3.177,2.2-1.267,4.684-1.684,7.023-2.526,2.068-.744,4.282-1.064,6.377-1.682,1.879-.553,3.816-.547,5.7-1.026A25.264,25.264,0,0,1,62.526.786,7.8,7.8,0,0,0,65.009.4c.827-.3,1.8.216,2.74.15a4.465,4.465,0,0,0,2.1-.356c.761-.471,1.395.086,2.093.077,35.3-.413,70.6-.151,105.9-.194Q251-.017,324.158.026c.385,0,.771.026,1.157.039.023.1.046.2.07.3-2.717,6.114-5.8,12.053-8.882,17.983-5.865,11.286-11.458,22.705-17.164,34.068Q281.533,87.878,263.851,123.4c-.168.338-.377.658-.565.986l-.252.214" transform="translate(374.929 -253.13)" fill="#396"/>
      <path id="Path_3" data-name="Path 3" d="M370.683,22.515c2.213,0,4.426.018,6.637-.013.537-.007.659.155.656.669q-.031,5.9,0,11.809c0,.436-.111.66-.545.779a59.426,59.426,0,0,1-7.63,1.562,41.805,41.805,0,0,1-8.258.277,22.668,22.668,0,0,1-8.759-2.272,11.152,11.152,0,0,1-6.348-7.851c-.881-4.05-.351-7.96,2.369-11.22a14.492,14.492,0,0,1,8.187-4.61,32.766,32.766,0,0,1,9.057-.818,39.64,39.64,0,0,1,10.661,2.041c.4.135.627.3.612.815-.047,1.642-.036,3.285-.008,4.927.011.627-.155.745-.7.435a21.351,21.351,0,0,0-7.576-2.45,24.625,24.625,0,0,0-6.012-.246,16.615,16.615,0,0,0-5.992,1.385,6.809,6.809,0,0,0-3.916,7.061,6.868,6.868,0,0,0,4.322,6.179,14.948,14.948,0,0,0,5.986,1.242,21.29,21.29,0,0,0,6.949-.818c.449-.146.662-.3.625-.8-.058-.786.25-1.81-.141-2.3-.416-.522-1.485-.148-2.267-.163-1.531-.029-3.064-.038-4.595.006-.612.018-.761-.185-.744-.765q.06-2.08,0-4.162c-.016-.56.158-.716.713-.709,2.241.029,4.481.012,6.722.012" transform="translate(32.543 -116.101)" fill="#349a67"/>
      <path id="Path_4" data-name="Path 4" d="M455.1,76.856v.977c0,5.21-.012,10.421.016,15.63,0,.637-.156.808-.794.792-1.814-.046-3.631-.052-5.445,0-.676.02-.772-.215-.771-.815q.029-11.978,0-23.955c0-.578.12-.774.736-.762,2.042.04,4.084.021,6.126.01a1.117,1.117,0,0,1,.9.336c4.36,4.451,8.753,8.87,13.09,13.343,1.063,1.1,2.149,2.171,3.206,3.273a.881.881,0,0,0,.644.387v-.918c0-5.21.011-10.42-.014-15.63,0-.618.126-.822.782-.8,1.786.05,3.574.031,5.36.009.471-.006.7.05.7.625q-.031,12.148,0,24.3c0,.509-.185.6-.639.595-2.155-.02-4.311-.012-6.467,0a.925.925,0,0,1-.8-.434,30.711,30.711,0,0,0-2.71-2.81c-1.88-1.719-3.559-3.627-5.315-5.463-.723-.756-1.509-1.453-2.237-2.2-1.789-1.845-3.558-3.71-5.343-5.559-.282-.292-.605-.547-1.02-.917" transform="translate(2.915 -132.921)" fill="#396"/>
      <path id="Path_5" data-name="Path 5" d="M577.648,29.022c0-5.463.016-10.9-.018-16.335,0-.765.176-1,.963-.969,1.7.065,3.4.041,5.1.007.558-.011.779.085.777.72q-.035,12.062-.005,24.125c0,.5-.09.688-.644.679-2.155-.035-4.311-.018-6.467-.01a.928.928,0,0,1-.795-.44,30.707,30.707,0,0,0-2.712-2.809c-1.88-1.718-3.558-3.627-5.315-5.463-.723-.756-1.478-1.484-2.243-2.2-1.821-1.7-3.362-3.662-5.154-5.387-.346-.332-.7-.655-1.094-1.023a1.613,1.613,0,0,0-.1.916c-.007,5.182-.021,10.364.013,15.545,0,.718-.185.894-.887.873-1.814-.053-3.63-.034-5.445-.007-.5.007-.681-.091-.68-.643q.029-12.1,0-24.21c0-.513.117-.677.654-.669,2.1.033,4.2.021,6.3.006a1.029,1.029,0,0,1,.811.345c4.363,4.447,8.754,8.868,13.091,13.34,1.064,1.1,2.147,2.175,3.209,3.272.143.148.248.393.637.336" transform="translate(-27.521 -116.372)" fill="#396"/>
      <path id="Path_6" data-name="Path 6" d="M412.507,94.241c-4.114,0-8.228-.011-12.342.013-.571,0-.769-.11-.766-.73q.033-12.023,0-24.047c0-.6.157-.747.751-.746q12.215.03,24.429,0c.655,0,.813.185.789.808-.048,1.273-.053,2.551,0,3.823.028.673-.18.842-.845.839-5.675-.027-11.35,0-17.024-.036-.8,0-1.011.224-.952.979a18.828,18.828,0,0,1,0,2.547c-.035.586.128.766.739.759,2.809-.035,5.618-.016,8.427-.016,2.639,0,5.277.024,7.916-.016.659-.011.81.193.788.813-.047,1.3-.046,2.607,0,3.908.021.607-.177.751-.764.749-5.391-.022-10.782,0-16.173-.03-.715,0-1,.118-.941.907a27.589,27.589,0,0,1,.006,3.312c-.028.61.172.743.757.74,5.817-.022,11.633,0,17.449-.029.683,0,.936.123.9.863-.068,1.3-.048,2.606,0,3.908.018.57-.169.7-.713.7-4.143-.022-8.285-.012-12.428-.012" transform="translate(17.054 -132.923)" fill="#396"/>
      <path id="Path_7" data-name="Path 7" d="M468.659,37.238c-4.086,0-8.171-.011-12.257.012-.611,0-.873-.075-.87-.8q.046-11.981.006-23.964c0-.577.121-.762.735-.76q12.215.032,24.429,0c.63,0,.833.145.8.793-.054,1.244-.059,2.495,0,3.738.035.725-.141.949-.916.943-5.618-.038-11.236,0-16.853-.042-.85-.006-1.145.182-1.055,1.052a13.384,13.384,0,0,1,0,2.461c-.056.677.211.774.813.771,5.362-.023,10.725,0,16.087-.032.774,0,1.022.184.977.971a36.467,36.467,0,0,0,0,3.653c.028.658-.15.855-.835.851-5.362-.03-10.725,0-16.087-.038-.8-.006-1,.231-.951.982a28.311,28.311,0,0,1,0,3.143c-.034.656.145.847.827.843,5.788-.029,11.577,0,17.364-.038.779-.006.945.216.909.939-.06,1.243-.053,2.493,0,3.737.026.626-.136.806-.786.8-4.114-.033-8.228-.016-12.342-.016" transform="translate(0.758 -116.375)" fill="#396"/>
      <path id="Path_8" data-name="Path 8" d="M517.392,37.237c-4.114,0-8.228-.012-12.342.013-.6,0-.815-.1-.813-.772q.04-11.981,0-23.963c0-.638.159-.793.794-.791q12.171.034,24.343,0c.685,0,.857.2.833.851-.048,1.272-.051,2.55,0,3.822.026.642-.165.8-.8.8-5.7-.026-11.406,0-17.108-.035-.773,0-.969.206-.911.936a15.571,15.571,0,0,1,0,2.546c-.065.735.261.8.87.8,5.221-.021,10.441-.012,15.662-.012,1.328,0,1.328,0,1.328,1.347,0,1.1-.041,2.211.015,3.314.033.649-.175.8-.806.794-5.391-.026-10.782,0-16.172-.031-.682,0-.946.121-.9.862a28.192,28.192,0,0,1,0,3.312c-.035.652.175.788.8.786,5.788-.025,11.576,0,17.363-.031.713,0,.993.114.943.9a37.912,37.912,0,0,0-.006,3.822c.024.608-.168.746-.756.742-4.114-.026-8.228-.013-12.342-.013" transform="translate(-13.381 -116.374)" fill="#396"/>
      <path id="Path_9" data-name="Path 9" d="M668.289,37.238c-4.114,0-8.228-.014-12.342.015-.623,0-.8-.133-.8-.784q.037-11.981,0-23.963c0-.656.188-.781.806-.78q12.172.032,24.343,0c.6,0,.857.092.825.771-.059,1.3-.056,2.607,0,3.908.028.659-.193.789-.811.786-5.646-.023-11.293.011-16.938-.038-.924-.009-1.15.27-1.072,1.12a14.294,14.294,0,0,1,0,2.377c-.048.641.155.8.792.793,5.306-.027,10.611-.016,15.917-.016,1.148,0,1.148,0,1.148,1.187,0,1.161-.043,2.325.016,3.483.034.667-.2.786-.818.783-5.391-.023-10.782,0-16.173-.031-.7,0-.93.151-.886.873a28.205,28.205,0,0,1,0,3.312c-.038.671.2.777.811.775,5.788-.023,11.576,0,17.363-.032.735,0,.977.15.932.917-.073,1.27-.055,2.549,0,3.822.025.622-.194.735-.766.731-4.114-.024-8.228-.013-12.342-.013" transform="translate(-57.19 -116.375)" fill="#396"/>
      <path id="Path_10" data-name="Path 10" d="M671.4,94.241c-4.114,0-8.228-.016-12.342.016-.647,0-.789-.172-.787-.8q.034-11.981,0-23.963c0-.568.106-.769.73-.767q12.256.034,24.514,0c.539,0,.741.123.723.7-.042,1.33-.055,2.664,0,3.993.03.681-.231.774-.826.771-5.7-.021-11.406,0-17.109-.029-.695,0-.947.143-.888.87a17.224,17.224,0,0,1,0,2.632c-.049.666.194.781.808.779,5.362-.024,10.725,0,16.087-.031.762,0,1.033.164.984.964a31.452,31.452,0,0,0,0,3.567c.037.726-.134.953-.916.947-5.333-.04-10.668,0-16-.041-.791-.006-1.008.212-.958.975a23.758,23.758,0,0,1,0,3.057c-.045.724.131.945.909.94,5.759-.04,11.519,0,17.278-.042.766,0,.956.2.916.933a35.853,35.853,0,0,0,0,3.652c.033.691-.137.9-.867.894-4.086-.04-8.171-.019-12.257-.019" transform="translate(-58.096 -132.923)" fill="#396"/>
      <path id="Path_11" data-name="Path 11" d="M434.065,37.235c-2.616,0-5.083-.016-7.549.006-1.012.01-1.215-.92-1.7-1.453-1.106-1.224-2.042-2.6-3.078-3.891s-2.136-2.546-3.165-3.849a.74.74,0,0,0-.681-.336c-2.1.009-4.2.022-6.3-.009-.532-.009-.664.146-.659.664.026,2.689-.006,5.379.025,8.069.007.6-.088.836-.769.817-1.87-.055-3.743-.034-5.614-.009-.478.006-.622-.126-.622-.612q.022-12.146,0-24.292c0-.485.14-.615.62-.614,5.672.016,11.345-.055,17.015.04,2.458.042,4.938.3,7.04,1.851a6.528,6.528,0,0,1,2.6,4.8,9.366,9.366,0,0,1-.289,3.96,6.936,6.936,0,0,1-4.52,4.354c-.659.257-.641.407-.212.92,2.549,3.05,5.057,6.133,7.577,9.207.067.082.122.174.268.381M416.758,22.446a43.216,43.216,0,0,0,5.591-.164,2.236,2.236,0,0,0,1.837-1.208,2.651,2.651,0,0,0-2.055-3.936,4.775,4.775,0,0,0-.84-.11c-3.262-.013-6.525-.007-9.787-.031-.467,0-.566.161-.559.587.022,1.387.033,2.776,0,4.164-.014.544.128.725.7.711,1.588-.039,3.177-.013,5.118-.013" transform="translate(15.729 -116.372)" fill="#396"/>
      <path id="Path_12" data-name="Path 12" d="M636.4,94.237c-2.512,0-5.055.026-7.6-.015-.823-.013-1.031-.891-1.468-1.382-1.1-1.234-2.034-2.608-3.069-3.9s-2.148-2.536-3.164-3.849a.883.883,0,0,0-.834-.375c-2.014.006-4.027.028-6.04-.012-.621-.013-.815.127-.8.782.041,2.66-.007,5.322.034,7.983.01.651-.177.8-.8.784-1.842-.043-3.687-.031-5.53,0-.5.007-.681-.092-.679-.643q.029-12.1,0-24.206c0-.61.236-.669.74-.668,5.587.014,11.174-.055,16.759.038,2.485.042,4.991.268,7.133,1.826a6.533,6.533,0,0,1,2.655,4.85,9.443,9.443,0,0,1-.269,3.881c-.7,2.325-2.5,3.61-4.641,4.462-.552.219-.571.313-.2.754,2.577,3.1,5.128,6.222,7.685,9.339.066.08.185.146.1.354M619.306,79.45a42.494,42.494,0,0,0,5.514-.162c.835-.151,1.646-.446,1.892-1.358.473-1.754.254-3.529-2.16-3.807a7.9,7.9,0,0,0-.842-.1c-3.234-.011-6.468,0-9.7-.026-.444,0-.585.121-.577.571.027,1.415.038,2.832,0,4.248-.017.559.192.648.684.64,1.617-.028,3.233-.011,5.2-.011" transform="translate(-43.052 -132.921)" fill="#396"/>
      <path id="Path_13" data-name="Path 13" d="M755.206,24.447c0-3.966.019-7.932-.018-11.9-.006-.686.2-.841.848-.825q2.679.066,5.362,0c.618-.014.818.123.807.781-.043,2.549.008,5.1-.035,7.647-.011.656.187.784.806.781q7.916-.037,15.833,0c.579,0,.771-.122.762-.736-.037-2.577-.005-5.155-.025-7.733,0-.5.056-.754.67-.74,1.9.043,3.8.03,5.7.006.47-.006.63.109.628.606q-.022,12.152,0,24.3c0,.5-.156.613-.627.607-1.9-.024-3.8-.037-5.7.006-.612.013-.673-.234-.671-.739.018-3.06-.014-6.119.027-9.177.009-.69-.2-.826-.849-.823q-7.873.038-15.747,0c-.616,0-.815.121-.807.779.039,3.059,0,6.118.035,9.177.008.655-.184.8-.806.782q-2.68-.064-5.362,0c-.648.016-.855-.135-.849-.823.036-3.993.018-7.988.018-11.982" transform="translate(-86.233 -116.374)" fill="#396"/>
      <path id="Path_14" data-name="Path 14" d="M704.974,86.391a24.585,24.585,0,0,0,6.652,2.375,26.455,26.455,0,0,0,10.5.228,4.61,4.61,0,0,0,1.777-.7c1.331-.918,1.3-1.877-.124-2.687a12.5,12.5,0,0,0-3.592-1.183c-3.731-.813-7.562-1.292-11.057-2.934a7.194,7.194,0,0,1-4.239-4.5,7.274,7.274,0,0,1,1.618-5.976c1.933-1.959,4.392-2.492,6.939-2.884a26.736,26.736,0,0,1,5.059-.334,41.1,41.1,0,0,1,10.729,1.815c.363.113.5.229.5.609-.011,1.614,0,3.228.017,4.842,0,.451-.07.6-.579.383a28.834,28.834,0,0,0-8.183-2.2,23.757,23.757,0,0,0-7.685.308,2.441,2.441,0,0,0-1.128.546,1.013,1.013,0,0,0-.057,1.61,5.559,5.559,0,0,0,2.7,1.255c3.45.883,7,1.366,10.37,2.568a12,12,0,0,1,5.362,3.289c2.311,2.681,1.446,7.384-1.524,9.395A14.663,14.663,0,0,1,724,94.147a33.674,33.674,0,0,1-9.341.449,32.854,32.854,0,0,1-9.2-1.939.61.61,0,0,1-.491-.669c.016-1.811.007-3.623.007-5.6" transform="translate(-71.587 -132.647)" fill="#359a67"/>
      <path id="Path_15" data-name="Path 15" d="M550.08,77.937c0-2.832.014-5.663-.012-8.5,0-.544.128-.724.7-.712q2.722.055,5.445,0c.58-.012.693.185.691.718-.019,4.673-.011,9.345-.011,14.017,0,2.788,1.064,4.55,3.705,5.365a13.634,13.634,0,0,0,10.376-.528,4.356,4.356,0,0,0,2.457-3.938c.332-5,.065-10,.138-15,.007-.458.1-.641.6-.634q2.892.043,5.786,0c.49-.007.615.144.613.621-.016,5.437.043,10.875-.031,16.31a7.593,7.593,0,0,1-4.052,6.668,19.369,19.369,0,0,1-7.606,2.441,32.82,32.82,0,0,1-6.261.106,16.97,16.97,0,0,1-9.4-3.109,7.293,7.293,0,0,1-3.146-6.1c.049-2.575.011-5.153.011-7.73" transform="translate(-26.686 -132.923)" fill="#349966"/>
      <path id="Path_16" data-name="Path 16" d="M719.3,37.641a23.55,23.55,0,0,1-9.659-1.548,12.9,12.9,0,0,1-4.851-3.192,11.7,11.7,0,0,1-3.346-8.286,12.481,12.481,0,0,1,1.591-6.744,12.661,12.661,0,0,1,6.947-5.569,28.763,28.763,0,0,1,7.328-1.379,36.246,36.246,0,0,1,5.213.081,27.643,27.643,0,0,1,8.462,2.074c.423.167.412.463.411.811-.006,1.586,0,3.172,0,4.758,0,.772-.184.865-.88.448a20.177,20.177,0,0,0-5.876-2.255,21.046,21.046,0,0,0-5.558-.563c-2.568.094-5.152.3-7.417,1.744a6.745,6.745,0,0,0-3.215,5.607,7.425,7.425,0,0,0,1.648,5.506,7.961,7.961,0,0,0,3.5,2.243,20.016,20.016,0,0,0,8.566.734,20.546,20.546,0,0,0,8.439-2.7c.538-.3.84-.373.813.45-.052,1.584-.037,3.172,0,4.757a.771.771,0,0,1-.6.848,34.307,34.307,0,0,1-7.09,2,17.711,17.711,0,0,1-4.418.18" transform="translate(-70.63 -116.123)" fill="#349a67"/>
      <path id="Path_17" data-name="Path 17" d="M343.233,68.746c2.549,0,4.93.011,7.311-.01.4,0,.54.2.682.5q3.808,7.87,7.622,15.738c.449.929.887,1.864,1.4,2.942.578-1.17,1.109-2.231,1.627-3.3q3.734-7.685,7.455-15.376c.135-.28.238-.495.587-.494,2.4,0,4.8,0,7.294,0a31.032,31.032,0,0,1-1.783,3.6C371.835,79.43,368.2,86.492,364.6,93.574a1.021,1.021,0,0,1-1.08.686c-2.213-.038-4.426-.032-6.639,0a.951.951,0,0,1-1.018-.625Q350.356,82.7,344.792,71.786c-.491-.967-.989-1.93-1.559-3.04" transform="translate(33.359 -132.925)" fill="#359a67"/>
      <path id="Path_18" data-name="Path 18" d="M620.651,11.74c4.539,0,9.078.011,13.617-.013.588,0,.777.133.757.742-.048,1.386-.049,2.776,0,4.162.023.622-.193.737-.766.732-3.092-.028-6.185.01-9.276-.031-.7-.009-.892.154-.888.872.031,6.061,0,12.122.036,18.182,0,.724-.2.889-.892.868-1.757-.052-3.518-.045-5.276,0-.646.016-.852-.134-.849-.823.03-6.061,0-12.122.038-18.182.005-.762-.2-.926-.932-.916-3.063.044-6.128,0-9.191.031-.573,0-.793-.12-.772-.739.046-1.386.047-2.776,0-4.162-.021-.627.214-.735.779-.732,4.538.021,9.078.011,13.617.011" transform="translate(-42.997 -116.375)" fill="#396"/>
      <path id="Path_19" data-name="Path 19" d="M515.865,68.743c4.51,0,9.022.015,13.531-.017.654,0,.808.18.785.8-.05,1.329-.049,2.663,0,3.992.024.644-.129.859-.823.85-3.091-.041-6.184,0-9.276-.035-.685-.009-.83.194-.828.845.025,6.061,0,12.122.031,18.182,0,.678-.12.924-.862.9-1.784-.061-3.575-.051-5.36,0-.647.018-.791-.168-.789-.8.026-5.919.015-11.838.015-17.757,0-1.35,0-1.35-1.4-1.35-2.893,0-5.786-.021-8.68.016-.64.008-.826-.16-.8-.8.051-1.329.052-2.663,0-3.992-.025-.66.154-.854.838-.85,4.539.032,9.077.016,13.617.016" transform="translate(-12.56 -132.922)" fill="#396"/>
      <path id="Path_51" data-name="Path 51" d="M210.163,72.105l.145.158c-.106,0-.164-.044-.145-.158" transform="translate(71.99 -133.903)" fill="#41a070"/>
      <path id="Path_56" data-name="Path 56" d="M218.561,89.11l.145.157c-.106,0-.163-.043-.145-.157" transform="translate(69.552 -138.84)" fill="#41a070"/>
      <path id="Path_61" data-name="Path 61" d="M261.891,29.966l-.145.156c-.018-.114.039-.158.145-.156" transform="translate(57.016 -121.67)" fill="#41a070"/>
      <path id="Path_62" data-name="Path 62" d="M303.25.258,303.2.06l.124.032-.077.166" transform="translate(44.98 -112.988)" fill="#54a97f"/>
      <path id="Path_70" data-name="Path 70" d="M227.2,106.6l.145.158c-.106,0-.164-.044-.145-.158" transform="translate(67.045 -143.916)" fill="#41a070"/>
      <path id="Path_74" data-name="Path 74" d="M223.982,47.119c-.106,0-.165-.048-.145-.162l.145.162" transform="translate(68.021 -126.603)" fill="#f4faf7"/>
      <path id="Path_76" data-name="Path 76" d="M253.254,47.451l-.146.156c-.018-.114.039-.158.146-.156" transform="translate(59.523 -126.746)" fill="#41a070"/>
      <path id="Path_77" data-name="Path 77" d="M228.54,56.459c-.106,0-.165-.047-.145-.161l.145.161" transform="translate(66.697 -129.314)" fill="#f4faf7"/>
      <path id="Path_79" data-name="Path 79" d="M245.156,116.075l.167-.141c-.009.1-.052.164-.167.141" transform="translate(61.831 -146.627)" fill="#3b9d6c"/>
      <rect id="Rectangle_2" data-name="Rectangle 2" width="567.313" height="82.842" transform="translate(133 -112.971)" fill="none"/>
    </g>
  </g>
</svg>
