<?xml version="1.0" encoding="utf-8"?>
<!-- Generator: Adobe Illustrator 26.4.1, SVG Export Plug-In . SVG Version: 6.00 Build 0)  -->
<svg version="1.0" id="katman_1" xmlns="http://www.w3.org/2000/svg" xmlns:xlink="http://www.w3.org/1999/xlink" x="0px" y="0px"
	 viewBox="0 0 841.89 595.28" style="enable-background:new 0 0 841.89 595.28;" xml:space="preserve">
<style type="text/css">
	.st0{fill:#E11A32;}
</style>
<path id="Path_2103" class="st0" d="M310.01,435.34l-23.03-35.41h-23.03v35.41h-30.22V313.11h53.09c30.18,0,50.38,16.55,50.38,42.97
	c0.36,15-7.52,29-20.53,36.47l28.59,42.79L310.01,435.34z M263.94,372.59h22.34c11.62,0,20.72-6.48,20.72-16.54
	c0-9.89-9.1-16.17-20.72-16.17h-22.34L263.94,372.59z"/>
<path id="Path_2104" class="st0" d="M390.21,339.54v22.28h53.96v25.89h-53.96v21.21h61.65v26.42h-91.88V313.11h91.87v26.43H390.21z"
	/>
<path id="Path_2105" class="st0" d="M586.5,373.89c0,36.3-27.32,61.45-65.55,61.45h-48.81V313.11h48.81
	C559.19,313.11,586.5,338.1,586.5,373.89 M555.94,373.89c-0.1-18.6-15.26-33.59-33.86-33.48c-0.38,0-0.76,0.01-1.15,0.03h-18.59
	v67.58h18.59c18.72,0.6,34.39-14.09,34.99-32.81c0.01-0.45,0.02-0.9,0.02-1.34"/>
<rect id="Rectangle_1549" x="603.11" y="313.11" class="st0" width="30.22" height="122.22"/>
<path id="Path_2106" class="st0" d="M748.98,340.26h-34.85v95.08h-30.02v-95.08h-34.85v-27.16H749L748.98,340.26z"/>
<path id="Path_2107" class="st0" d="M184.48,391.35c-4.48,11.38-15.74,18.61-27.95,17.94c-19.37-0.87-34.36-17.28-33.48-36.65
	c0.82-18.14,15.34-32.66,33.48-33.48c12.21-0.67,23.47,6.56,27.95,17.93h31.99c-5.89-27.99-31.18-47.61-59.76-46.34
	c-35.05-0.55-63.91,27.41-64.46,62.45s27.41,63.91,62.45,64.46c0.67,0.01,1.34,0.01,2.01,0c28.57,1.27,53.87-18.33,59.76-46.32
	L184.48,391.35z"/>
<path id="Path_2108" class="st0" d="M209.3,162.36v122.22h-30.04v-45.84h-49.48v45.84H99.59V162.36h30.18v49.08h49.48v-49.08
	L209.3,162.36z"/>
<path id="Path_2109" class="st0" d="M556.5,284.58h-30.18V223.3l-27.01,41.88v0.16h-16.8v-0.16l-27.15-42.26l0.16,61.66h-30.14
	V162.36h22.5l43.07,65.24l43.06-65.24h22.52L556.5,284.58z"/>
<path id="Path_2110" class="st0" d="M611.76,188.78v22.28h54.01v25.9h-54.01v21.18h61.65v26.43h-91.85V162.36h91.85v26.42
	L611.76,188.78z"/>
<path id="Path_2111" class="st0" d="M317.31,156.98c-47.05-0.98-85.99,36.35-87,83.4c0,15.72,4.59,31.09,13.22,44.23h41.96
	c-23.29-17.57-27.93-50.69-10.37-73.99s50.69-27.93,73.99-10.37c23.29,17.57,27.93,50.69,10.37,73.99
	c-2.96,3.92-6.45,7.41-10.37,10.37h41.98c8.63-13.13,13.23-28.51,13.22-44.23C403.33,193.32,364.37,155.98,317.31,156.98"/>
<path id="Path_2112" class="st0" d="M288.78,254.02c4.9,15.75,21.65,24.55,37.4,19.64c9.38-2.92,16.72-10.26,19.64-19.64H288.78z"/>
</svg>
