<svg fill="none" height="35" viewBox="0 0 94 35" width="94" xmlns="http://www.w3.org/2000/svg">
<g clip-path="url(#clip0_576_227)">
<path d="M19.8831 4.30452H10.0806M10.0806 4.30452L19.8831 26.3325M10.0806 4.30452L0.275391 26.3325H82.7418M88.2495 4.30452H44.0529M44.0529 15.3171H63.6772M5.19041 15.3171H19.8831M88.2467 4.2935C86.7845 4.2935 85.3822 4.87421 84.3483 5.90787C83.3144 6.94154 82.7335 8.34349 82.7335 9.80531C82.7335 11.2671 83.3144 12.6691 84.3483 13.7028C85.3822 14.7364 86.7845 15.3171 88.2467 15.3171C89.7089 15.3171 91.1112 15.8978 92.1451 16.9315C93.1791 17.9652 93.7599 19.3671 93.7599 20.8289C93.7599 22.2908 93.1791 23.6927 92.1451 24.7264C91.1112 25.76 89.7089 26.3407 88.2467 26.3407H82.7335M80.3105 4.31279V26.3325M77.2451 26.3325L70.4584 17.8911C71.3507 17.8911 72.2343 17.7154 73.0587 17.374C73.8831 17.0326 74.6322 16.5322 75.2632 15.9014C75.8942 15.2706 76.3947 14.5217 76.7362 13.6975C77.0776 12.8733 77.2534 11.9899 77.2534 11.0978C77.2534 10.2057 77.0776 9.32235 76.7362 8.49815C76.3947 7.67394 75.8942 6.92506 75.2632 6.29424C74.6322 5.66342 73.8831 5.16303 73.0587 4.82163C72.2343 4.48024 71.3507 4.30452 70.4584 4.30452H63.6772V26.3325L53.8581 4.30452L44.0529 26.3325M44.0667 26.3325V4.30177C44.0667 3.23391 43.6424 2.20978 42.8871 1.45469C42.1318 0.699597 41.1075 0.275391 40.0393 0.275391C38.9712 0.275391 37.9468 0.699597 37.1915 1.45469C36.4362 2.20978 36.0119 3.23391 36.0119 4.30177M36.0119 4.30177V26.3325M36.0119 4.30177C35.9845 3.25178 35.5479 2.25403 34.7954 1.52109C34.0429 0.788163 33.0338 0.378001 31.9832 0.378001C30.9326 0.378001 29.9235 0.788163 29.1709 1.52109C28.4184 2.25403 27.9819 3.25178 27.9544 4.30177M27.9544 4.30177V26.3325M27.9544 4.30177C27.9269 3.25178 27.4904 2.25403 26.7379 1.52109C25.9853 0.788163 24.9762 0.378001 23.9256 0.378001C22.875 0.378001 21.8659 0.788163 21.1134 1.52109C20.3608 2.25403 19.9243 3.25178 19.8969 4.30177V26.3325M82.3338 2.28996C82.3338 2.6884 82.2156 3.0779 81.9942 3.40919C81.7728 3.74049 81.4581 3.9987 81.0899 4.15117C80.7217 4.30365 80.3165 4.34355 79.9256 4.26582C79.5347 4.18808 79.1757 3.99621 78.8939 3.71447C78.6121 3.43273 78.4201 3.07377 78.3424 2.68298C78.2646 2.29219 78.3045 1.88713 78.4571 1.51902C78.6096 1.1509 78.8678 0.83627 79.1992 0.614906C79.5306 0.393543 79.9202 0.275391 80.3187 0.275391C80.8532 0.275391 81.3657 0.487639 81.7436 0.865444C82.1215 1.24325 82.3338 1.75566 82.3338 2.28996Z" stroke="currentColor" stroke-linecap="round" stroke-linejoin="round"></path>
<path d="M24.242 31.3181C24.0664 31.1438 23.8634 30.9995 23.6411 30.8909C23.3918 30.7767 23.1214 30.7157 22.8472 30.7118C22.3563 30.7305 21.8918 30.9386 21.5512 31.2924C21.2105 31.6461 21.0202 32.1181 21.0202 32.6092C21.0202 33.1003 21.2105 33.5723 21.5512 33.926C21.8918 34.2798 22.3563 34.4879 22.8472 34.5066C23.1457 34.5023 23.4392 34.4287 23.7045 34.2917C23.9008 34.1915 24.0803 34.0613 24.2365 33.9059V34.5397C23.8342 34.8277 23.3529 34.9846 22.8582 34.9889C22.5454 34.9871 22.2361 34.9237 21.9478 34.8024C21.6595 34.6811 21.398 34.5042 21.1781 34.2818C20.734 33.8326 20.4866 33.2255 20.4903 32.594C20.4939 31.9625 20.7484 31.3583 21.1976 30.9144C21.6468 30.4704 22.2541 30.2231 22.8858 30.2267C23.3784 30.2208 23.8584 30.3821 24.2475 30.6842L24.242 31.3181Z" fill="currentColor"></path>
<path d="M26.2287 32.6079C26.226 32.1336 26.3642 31.6693 26.6257 31.2736C26.8873 30.878 27.2604 30.5689 27.6979 30.3855C28.1354 30.2021 28.6174 30.1527 29.083 30.2436C29.5486 30.3344 29.9767 30.5614 30.3131 30.8958C30.6495 31.2302 30.879 31.6569 30.9726 32.1218C31.0661 32.5867 31.0195 33.069 30.8386 33.5074C30.6577 33.9458 30.3507 34.3206 29.9565 34.5844C29.5623 34.8482 29.0986 34.989 28.6242 34.989C28.3092 34.9949 27.9961 34.9375 27.7037 34.8201C27.4113 34.7027 27.1455 34.5278 26.922 34.3057C26.6986 34.0835 26.522 33.8188 26.4029 33.5271C26.2838 33.2355 26.2246 32.9229 26.2287 32.6079ZM26.7525 32.6079C26.7574 32.9769 26.8713 33.3362 27.0799 33.6407C27.2885 33.9451 27.5825 34.1811 27.9249 34.3189C28.2674 34.4568 28.6429 34.4903 29.0043 34.4153C29.3658 34.3403 29.6969 34.1602 29.9562 33.8975C30.2155 33.6349 30.3913 33.3014 30.4616 32.9391C30.5318 32.5768 30.4933 32.2019 30.351 31.8614C30.2086 31.5209 29.9687 31.2301 29.6615 31.0255C29.3542 30.821 28.9933 30.7119 28.6242 30.7118C28.3766 30.7129 28.1317 30.7629 27.9035 30.8588C27.6752 30.9548 27.4682 31.0949 27.2943 31.2711C27.1204 31.4473 26.983 31.656 26.89 31.8854C26.797 32.1149 26.7503 32.3604 26.7525 32.6079Z" fill="currentColor"></path>
<path d="M33.4062 34.9061V30.1108L36.9898 33.8699V30.3148H37.5026V35.1238L33.919 31.362V34.9171L33.4062 34.9061Z" fill="currentColor"></path>
<path d="M42.2002 31.2131C42.1325 31.0809 42.0387 30.9637 41.9245 30.8686C41.7743 30.7596 41.5918 30.7043 41.4063 30.7115C41.3078 30.7019 41.2083 30.713 41.1144 30.7443C41.0204 30.7756 40.9341 30.8263 40.8611 30.8931C40.788 30.9599 40.7299 31.0413 40.6903 31.132C40.6508 31.2228 40.6308 31.3208 40.6317 31.4198C40.6272 31.4958 40.6406 31.5717 40.6708 31.6416C40.7009 31.7114 40.747 31.7733 40.8054 31.8222C40.9481 31.9425 41.1116 32.0359 41.2878 32.0977L41.7316 32.2907C41.9975 32.3938 42.2416 32.5462 42.451 32.7399C42.5612 32.8469 42.6477 32.9757 42.7051 33.118C42.7626 33.2604 42.7896 33.4132 42.7846 33.5666C42.7719 33.8456 42.6805 34.1152 42.5211 34.3444C42.3616 34.5736 42.1405 34.753 41.8834 34.8619C41.6263 34.9709 41.3436 35.0049 41.0679 34.96C40.7923 34.9151 40.535 34.7932 40.3257 34.6084C40.1085 34.3783 39.9605 34.0918 39.8984 33.7816L40.3946 33.6438C40.4256 33.8627 40.5216 34.0672 40.6703 34.2308C40.7571 34.3174 40.861 34.3848 40.9754 34.429C41.0898 34.4731 41.2122 34.4929 41.3346 34.4871C41.4569 34.4946 41.5794 34.4763 41.6941 34.4332C41.8088 34.3902 41.9132 34.3235 42.0003 34.2374C42.0875 34.1513 42.1555 34.0478 42.1999 33.9336C42.2443 33.8195 42.2641 33.6972 42.2581 33.5749C42.2645 33.4719 42.2474 33.3689 42.2083 33.2734C42.1691 33.1779 42.1089 33.0926 42.032 33.0237C41.8661 32.8897 41.68 32.7828 41.4807 32.7068L41.0672 32.5139C40.8411 32.4251 40.6329 32.2963 40.4525 32.1336C40.3477 32.0391 40.265 31.9227 40.2102 31.7927C40.1554 31.6627 40.1299 31.5222 40.1355 31.3812C40.1355 30.6702 40.6868 30.1934 41.4256 30.1934C41.6875 30.1827 41.9461 30.2551 42.1644 30.4001C42.3547 30.5307 42.5092 30.7069 42.6137 30.9127L42.2002 31.2131Z" fill="currentColor"></path>
<path d="M45.6794 33.126C45.6794 33.5118 45.6794 33.9334 46.046 34.2449C46.2628 34.4145 46.5302 34.5067 46.8055 34.5067C47.0808 34.5067 47.3481 34.4145 47.5649 34.2449C47.9316 33.9334 47.9316 33.5118 47.9316 33.126V30.3149H48.4415V33.2638C48.4723 33.6514 48.3755 34.0386 48.1659 34.3661C47.9995 34.5605 47.7929 34.7165 47.5605 34.8235C47.328 34.9305 47.0752 34.9859 46.8193 34.9859C46.5634 34.9859 46.3105 34.9305 46.078 34.8235C45.8456 34.7165 45.6391 34.5605 45.4727 34.3661C45.263 34.0386 45.1662 33.6514 45.197 33.2638V30.3149H45.707L45.6794 33.126Z" fill="currentColor"></path>
<path d="M51.59 30.3149V34.4488H52.8608V34.9311H51.0801V30.3149H51.59Z" fill="currentColor"></path>
<path d="M55.9866 30.7862V34.9201H55.4766V30.7862H54.3574V30.3149H57.114V30.7972L55.9866 30.7862Z" fill="currentColor"></path>
<path d="M59.7569 30.3149V34.9173H59.2441V30.3149H59.7569Z" fill="currentColor"></path>
<path d="M62.3867 34.9061V30.1108L65.9703 33.8699V30.3148H66.4803V35.1238L62.8967 31.362V34.9171L62.3867 34.9061Z" fill="currentColor"></path>
<path d="M71.4985 32.5937H73.4281V32.7039C73.4337 33.2235 73.2797 33.7324 72.9871 34.1618C72.7885 34.4263 72.5295 34.6394 72.2317 34.7833C71.9338 34.9271 71.6059 34.9975 71.2752 34.9886C70.6435 34.9867 70.0385 34.7341 69.5931 34.2863C69.1477 33.8385 68.8986 33.2321 68.9004 32.6006C68.9022 31.9691 69.1549 31.3642 69.6029 30.9189C70.0508 30.4736 70.6573 30.2245 71.289 30.2264C71.7963 30.2183 72.2919 30.3792 72.6976 30.6838C72.8992 30.8425 73.0782 31.0279 73.2296 31.235L72.8492 31.5823C72.7258 31.4048 72.5793 31.2445 72.4137 31.1055C72.0994 30.8462 71.7019 30.7092 71.2945 30.7197C70.8037 30.7384 70.3392 30.9465 69.9985 31.3003C69.6579 31.6541 69.4676 32.126 69.4676 32.6171C69.4676 33.1082 69.6579 33.5802 69.9985 33.934C70.3392 34.2878 70.8037 34.4958 71.2945 34.5146C71.5767 34.521 71.8557 34.4528 72.103 34.3168C72.3504 34.1808 72.5574 33.9819 72.7031 33.7401C72.8172 33.5397 72.8815 33.3147 72.8906 33.0842H71.5123L71.4985 32.5937Z" fill="currentColor"></path>
<path d="M78.8004 33.3048C78.8977 33.3054 78.993 33.277 79.0741 33.2233C79.1552 33.1696 79.2185 33.093 79.256 33.0033C79.2935 32.9135 79.3034 32.8147 79.2846 32.7193C79.2657 32.6238 79.2189 32.5362 79.1501 32.4674C79.0813 32.3986 78.9937 32.3519 78.8982 32.333C78.8028 32.3142 78.7039 32.3241 78.6141 32.3616C78.5244 32.3991 78.4478 32.4624 78.394 32.5435C78.3403 32.6246 78.312 32.7198 78.3125 32.817C78.3132 32.9462 78.3649 33.0698 78.4562 33.1612C78.5476 33.2525 78.6712 33.3041 78.8004 33.3048Z" fill="currentColor"></path>
<path d="M15.2321 33.3048C15.3293 33.3054 15.4246 33.277 15.5057 33.2233C15.5868 33.1696 15.6501 33.093 15.6876 33.0033C15.7251 32.9135 15.735 32.8147 15.7162 32.7193C15.6973 32.6238 15.6506 32.5362 15.5818 32.4674C15.513 32.3986 15.4253 32.3519 15.3299 32.333C15.2344 32.3142 15.1355 32.3241 15.0458 32.3616C14.956 32.3991 14.8794 32.4624 14.8257 32.5435C14.772 32.6246 14.7436 32.7198 14.7441 32.817C14.7449 32.9462 14.7965 33.0698 14.8879 33.1612C14.9792 33.2525 15.1029 33.3041 15.2321 33.3048Z" fill="currentColor"></path>
</g>
<defs>
<clipPath id="clip0_576_227">
<rect fill="white" height="35" width="94"></rect>
</clipPath>
</defs>
</svg>