<?xml version="1.0" encoding="utf-8"?>
<!-- Generator: Adobe Illustrator 24.2.0, SVG Export Plug-In . SVG Version: 6.00 Build 0)  -->
<svg version="1.1" id="Layer_1" xmlns="http://www.w3.org/2000/svg" xmlns:xlink="http://www.w3.org/1999/xlink" x="0px" y="0px"
	 viewBox="0 0 937.5 603.5" style="enable-background:new 0 0 937.5 603.5;" xml:space="preserve">
<style type="text/css">
	.st0{fill:#E70312;}
	.st1{fill:#027B46;}
</style>
<g>
	<polygon class="st0" points="0,0.2 432.8,0 432.8,96.3 124.7,96.3 124.8,173.3 418.1,173.1 418.1,267.6 124.6,267.7 124.7,408 
		0.1,408 	"/>
	<polygon class="st0" points="481,0.1 805.2,0 937.5,0.1 937.5,96.3 604.4,96.3 604.5,154.7 918.3,154.8 918.4,245.1 604.4,245 
		604.8,309.9 937.5,309.8 937.4,407.9 481,407.9 	"/>
</g>
<g>
	<path class="st1" d="M34.2,475.5c22.2-2.8,44.7-2.2,67-2.3c13.4,0.2,27.2-0.3,40.3,3.2c8.3,2,16,7.9,18.5,16.4
		c2.5,8.9,3.1,18.4,2.5,27.6c-12.9,0.2-25.8,0.1-38.7,0c-0.4-3.9,0-8.3-2.7-11.5c-3.6-2.9-8.6-2.4-12.9-3.1c-15.6-1-31.3-0.7-47-0.4
		c-5.4,0.4-12.2,0.7-15.5,5.8c-3.5,5.9-3.3,12.9-4,19.5c-0.9,8.7-0.5,17.4,0.8,26c0.7,3.7,1.5,7.8,4.6,10.3c4,3.1,9.3,3.5,14.1,4
		c6,0.2,12,0.6,18,0.4c11.9-0.6,24,0.3,35.9-1.1c3.1-0.4,6.8-1.4,8.2-4.5c2-4.1,2.2-8.7,2.6-13.2c12.9,0,25.8,0,38.7,0.1
		c0.3,11.3,1.4,23.3-3.6,33.8c-3.9,8.4-13.2,12.4-21.7,14.1c-17.5,2.9-35.4,2.7-53.1,2.7c-14.4-0.2-28.8,0.1-43.2-1.3
		c-9.9-0.9-20.5-2-28.8-8.1c-5.2-3.7-8.1-9.8-9.3-15.9c-2-10.6-2.1-21.5-2-32.2C3,531.3,2.5,517,4.2,502.7
		c0.7-7.8,4.2-15.7,10.6-20.4C20.4,478.1,27.4,476.5,34.2,475.5z"/>
	<g>
		<path class="st1" d="M183.2,473.3c40.4,0,80.8,0,121.1,0c9.8,0.3,20.5-0.2,29.1,5.3c6.1,3.6,10.1,10.1,11,17.1
			c1.9,14.1,2.8,28.7-0.8,42.7c-2.5,8.6-11.5,13-19.7,14.3c5.3,1.2,11.2,2.3,15.1,6.4c3.8,3.9,4.6,9.5,5,14.7
			c0.7,9.9,0.5,19.8,0.5,29.8c-13.2,0-26.4-0.3-39.6-0.2c-0.2-7.5,0.2-15.1-0.8-22.5c-0.5-4.2-3.2-8.6-7.5-9.4
			c-4.7-1-9.5-0.7-14.3-0.7c-19.6,0-39.2-0.1-58.8,0.1c-0.7,10.9-0.1,21.9-0.3,32.8c-13.2,0-26.5-0.3-39.7-0.2
			C183.2,559.9,183.5,516.6,183.2,473.3z M223.4,506.1c-0.3,10.4-0.5,20.9,0,31.4c24.3-0.1,48.6,0.5,72.9-0.3c4.6-0.1,8.4-4,8.9-8.5
			c0.7-6.1,1.4-12.8-1.6-18.4c-2.2-4.1-7.4-4.1-11.4-4.2C269.3,506,246.3,506,223.4,506.1z"/>
	</g>
	<path class="st1" d="M364.5,603.3c-0.2-43.4-0.2-86.7,0-130.1c48.4,0.1,96.8,0,145.2,0.1c0.1,10.2-0.1,20.5,0,30.7
		c-22.5-0.1-44.9,0-67.4-0.1c-12.9,0.1-25.7-0.3-38.6,0.2c0.1,6,0.1,12,0.2,18c33.3,0.1,66.5,0.2,99.8,0.2c0,9.7,0,19.5,0.1,29.2
		c-33.4,0-66.7-0.2-100.1,0c-0.1,6.7,0,13.3,0.1,20c35.3,0.3,70.6,0,105.9,0.1c0,10.6,0,21.2,0,31.8
		C461.3,603,412.9,603.4,364.5,603.3z"/>
	<g>
		<path class="st1" d="M528.4,473.2c36.3,0,72.6,0,108.9,0c14,0.1,28.5-0.5,41.7,4.7c7.5,2.8,13.7,8.9,16.8,16.3
			c3.4,8.2,4,17.2,4.8,26c0.7,17.9,0.6,36-2.7,53.7c-1.7,8.3-6,16.4-13.1,21.2c-6.6,4.5-14.7,5.8-22.5,6.8c-13,1.7-26,1.3-39,1.4
			c-31.6,0-63.2,0-94.8,0C528.3,560,528.2,516.6,528.4,473.2z M567.5,506.2c-0.1,21.1-0.3,42.3,0.1,63.4c14.2,0,28.4,0.3,42.6,0.3
			c11.5-0.1,23.1,0.4,34.5-0.8c4.8-0.8,10.8-1.7,13.2-6.7c4-8.2,3.3-17.7,3.5-26.7c-0.3-7.3-0.1-14.9-3.5-21.6
			c-2.1-4.4-7-6.7-11.6-7.2c-11-1.2-22.1-0.8-33.2-0.9C598,506,582.7,505.9,567.5,506.2z"/>
	</g>
	<path class="st1" d="M719.1,473.2c14,0,28,0,42,0c0.5,11.5-0.2,23,0,34.5c0,31.9-0.1,63.8,0.2,95.7c-14,0-28-0.2-42-0.2
		c-0.5-22.8-0.1-45.7-0.2-68.6C719.2,514.2,719,493.7,719.1,473.2z"/>
	<path class="st1" d="M779.5,506.4c0-11.1-0.3-22.1,0.1-33.2c52.6,0.1,105.3,0,157.9,0c0.1,11.1,0,22.2,0,33.3
		c-19.3-0.1-38.5-0.1-57.8-0.1c-0.5,10.1,0,20.3-0.2,30.4c0,22.2,0,44.5-0.1,66.7c-13.9,0-27.8-0.1-41.8-0.2
		c-0.3-32.3,0-64.5-0.2-96.8C818.2,506.3,798.8,506.4,779.5,506.4z"/>
</g>
</svg>
