<svg version="1.1" id="Layer_1" xmlns="http://www.w3.org/2000/svg" xmlns:xlink="http://www.w3.org/1999/xlink" x="0px" y="0px" viewBox="0 0 281.5 62.1" style="enable-background:new 0 0 281.5 62.1;" xml:space="preserve">
 <style type="text/css">
  .st0{fill-rule:evenodd;clip-rule:evenodd;fill:#141414;}
	.st1{fill:#42B0D5;}
	.st2{fill:#FFFFFF;}
 </style>
 <g id="Large---1280px-_x28_Max-Width_x29_">
  <g id="IGN---Transparent" transform="translate(-104.000000, -21.000000)">
   <g id="IGN">
    <g id="Logo" transform="translate(104.000000, 21.000000)">
     <g id="Text" transform="translate(51.502463, 9.973333)">
      <polyline id="Fill-4" class="st0" points="34.4,34.9 34.4,7.6 41.7,7.6 51,28 60.1,7.6 67.2,7.6 67.2,34.9 61.1,34.9 61.1,19 
						54.2,34.9 47.7,34.9 40.7,19.1 40.7,34.9 34.4,34.9 					">
      </polyline>
      <path id="Fill-5" class="st0" d="M91.5,24.3l-5.1-11.6l-4.9,11.6H91.5z M77,34.9h-7.1L82.1,7.6h8.7l12.3,27.3h-7l-2.4-5.4H79.3
						L77,34.9L77,34.9z">
      </path>
      <polyline id="Fill-6" class="st0" points="106,34.9 106,7.6 132.2,7.6 132.2,13 112.3,13 112.3,18.4 129.4,18.4 129.4,23.8 
						112.3,23.8 112.3,29.4 132.3,29.4 132.3,34.9 106,34.9 					">
      </polyline>
      <path id="Fill-7" class="st0" d="M143.8,20.1h13.8V13h-13.8V20.1z M137.4,34.9V7.6h22c2.9,0,4.6,1.7,4.6,4.6v9.2
						c0,2.1-1.9,4-5.5,4c-0.2,0-0.4,0-0.6,0l6.4,9.5h-7.1l-6.1-9.3h-7.3v9.3H137.4L137.4,34.9z">
      </path>
      <path id="Fill-8" class="st0" d="M175.6,34.9h-2.2c-2.8,0-4.2-1.6-4.2-4v-3.6h6.4v2.1h13.6v-5.6c0,0-13.1,0-15.6,0
						c-2.5,0-4.3-1.7-4.3-4v-8.1c0-2.5,2-4.2,4.3-4.2c2.4,0,17.8,0,17.8,0c2.4,0,4.1,1.8,4.1,4.4c0,2.6,0,3.3,0,3.3h-6.3V13h-13.6
						v5.4h15.5c2.3,0,4.4,1.5,4.4,4.4v7.8c0,2.7-1.5,4.3-4.3,4.3C188.5,34.9,175.6,34.9,175.6,34.9">
      </path>
      <polyline id="Fill-9" class="st0" points="201.7,34.9 201.7,7.6 208.2,7.6 208.2,18.5 220.6,7.6 229.5,7.6 214.7,20.3 
						230,34.9 220.9,34.9 208.2,22.5 208.2,34.9 201.7,34.9 					">
      </polyline>
     </g>
     <g id="Star">
      <path id="Shape" class="st1" d="M7.1,0h44.9c3.9,0,7.1,3.2,7.1,7.1V55c0,3.9-3.2,7.1-7.1,7.1H7.1C3.2,62.1,0,58.9,0,55V7.1
						c0-1.9,0.7-3.7,2.1-5S5.2,0,7.1,0z">
      </path>
      <polygon id="Shape_1_" class="st2" points="39,29.3 50.7,14.8 50.7,14.8 33.8,22.8 29.6,4.7 29.6,4.7 25.4,22.8 8.5,14.8 
						8.5,14.8 20.2,29.3 3.3,37.4 3.3,37.4 22,37.4 17.9,55.5 17.9,55.5 29.6,41 41.3,55.5 41.3,55.5 37.1,37.4 55.9,37.4 
						55.9,37.4 					">
      </polygon>
     </g>
    </g>
   </g>
  </g>
 </g>
</svg>