<svg xmlns="http://www.w3.org/2000/svg" viewBox="0 0 532.25 97.58"><title>Manulife Financial logo</title><path d="M531.49,523l-7.69.92c-6.69.83-12.55,3.21-12.55,8.89,0,4,3.48,6.78,8,6.78,5.32,0,9.71-3.48,12.46-7V523Zm.09,24.46v-5.77a18.57,18.57,0,0,1-14.94,7c-9,0-16.4-5.68-16.4-15.39,0-11.82,11.09-16.13,21.9-17.32l4.22-.46c4.12-.37,5.59-2.65,5.59-5.4,0-3.39-3.2-5.86-8.06-5.86-5.59,0-11,4-13,7.23l-6.42-7.6c3.94-5.14,10.91-8.71,20-8.71,11.73,0,18.51,6,18.51,16.13v36.2Z" transform="translate(-245.88 -463.21)"/><path d="M564.29,547.48H553V496.35h11.27v5.77c4-3.67,10.08-7,16.68-7,6,0,14.29,3.49,14.29,15.95v36.38H584V514c0-5-2.11-9.35-7.33-9.35-4.31,0-9.8,3.66-12.37,6.05Z" transform="translate(-245.88 -463.21)"/><path d="M634.92,496.35h11.27v51.13H634.55V542c-3.12,2.93-8.15,6.69-14.75,6.69S604,545.19,604,532.36v-36h11.27V528.7c0,6,2.57,10.08,7.88,10.08,4.4,0,8.52-2.85,11.73-6.42Z" transform="translate(-245.88 -463.21)"/><path d="M669.91,547.48H658.64V480.22L669.91,469Z" transform="translate(-245.88 -463.21)"/><path d="M694.09,547.48H682.36V496.35h11.73Zm-5.86-74.13a7.21,7.21,0,0,1,7.14,7.15,7.19,7.19,0,1,1-7.14-7.15" transform="translate(-245.88 -463.21)"/><path d="M729.82,505.7H719.1v41.79H707.83V505.7H701v-9.35h6.88V485.81c0-8.43,5.4-16,16-16a25.76,25.76,0,0,1,11.54,2.65l-3.57,8.8a13.13,13.13,0,0,0-6.23-1.83c-3.58,0-6.51,2.65-6.51,7.05v9.89h13.38Z" transform="translate(-245.88 -463.21)"/><path d="M766.28,516.33c0-6.23-3.94-12.09-10.81-12.09-6.59,0-11.73,6.23-11.92,12.09Zm-23.09,8.62c.09,8.25,6,14.11,13.1,14.11a16.11,16.11,0,0,0,13.19-7.88l7.05,6.59a26.19,26.19,0,0,1-21.35,10.9c-14.57,0-23.64-11-23.64-26.76,0-15.2,9.8-26.75,24-26.75,13.56,0,23.09,8.89,22.54,29.78Z" transform="translate(-245.88 -463.21)"/><path d="M435.57,547.48H423.29v-71h13.29l20.89,34.92h.18l20.8-34.92h13v71H479.09V497.22h-.18L457.38,533l-21.62-35.74h-.18Z" transform="translate(-245.88 -463.21)"/><path d="M316.84,481v79.84L334.58,543V463.21Z" transform="translate(-245.88 -463.21)" style="fill:#00ac5b"/><path d="M281.36,560.79,299.1,543V463.21l-17.74,17.74Z" transform="translate(-245.88 -463.21)" style="fill:#00ac5b"/><path d="M245.88,560.79,263.62,543V463.21l-17.74,17.74Z" transform="translate(-245.88 -463.21)" style="fill:#00ac5b"/></svg>