<svg version="1.1" id="Layer_1" xmlns:x="ns_extend;" xmlns:i="ns_ai;" xmlns:graph="ns_graphs;" xmlns="http://www.w3.org/2000/svg" xmlns:xlink="http://www.w3.org/1999/xlink" x="0px" y="0px" viewBox="0 0 93 44" style="enable-background:new 0 0 93 44;" xml:space="preserve">
 <style type="text/css">
  .st0{fill:#144B3C;}
 </style>
 <metadata>
  <sfw xmlns="ns_sfw;">
   <slices>
   </slices>
   <sliceSourceBounds bottomLeftOrigin="true" height="44" width="93" x="153.8" y="-222.2">
   </sliceSourceBounds>
  </sfw>
 </metadata>
 <path class="st0" d="M65.3,44h-5.1l-5.4-7.5V44h-4.3V28.3c0-0.2,0.1-0.4,0.2-0.5c0.1-0.1,0.3-0.2,0.5-0.2h3.5v7l5.5-7h4.8l-6.2,7.6
	L65.3,44z M43.2,37.8c-0.9-1.7-6.6-10.1-6.6-10.1h-4.5V44h4.2V33.7L43.2,44h4.1V27.6h-4.1V37.8z M25.2,27.7l5,16.3h-4.4L25,41.2
	h-5.7L18.5,44h-4.4L19,28.2c0-0.2,0.2-0.3,0.3-0.4c0.1-0.1,0.3-0.1,0.5-0.1L25.2,27.7z M24.2,38.1l-2-7.3H22l-2,7.3H24.2z
	 M13.2,39.5c0,3.3-2.7,4.5-6.5,4.5H0V28.4c0-0.1,0-0.2,0.1-0.3s0.1-0.2,0.2-0.2s0.2-0.1,0.2-0.2c0.1,0,0.2-0.1,0.3-0.1h6
	c3,0,5.8,0.9,5.8,4.1c0,2-0.8,3.3-2.4,3.8C11.8,35.8,13.2,37.1,13.2,39.5L13.2,39.5z M3.9,34.2h2.3c1.7,0,2.4-0.5,2.4-1.8
	c0-1.2-0.8-1.8-2.3-1.8H3.9L3.9,34.2z M9.2,39.1c0-1.4-0.8-2-2.5-2H3.9V41h2.6C8.2,41,9.2,40.5,9.2,39.1L9.2,39.1z M18.7,19.9H0v4.2
	h18.7L18.7,19.9z M58.9,12l1.9,4.7h-4.4l-2-4.5c-0.4-0.9-0.7-1.4-1.5-1.4h-1.7v5.9h-4.1V1c0-0.2,0.1-0.3,0.2-0.4s0.3-0.2,0.4-0.2
	h5.8c3.2,0,5.9,0.7,5.9,4.7c0,1.8-1,3.7-2.9,4.1C57.5,9.4,58.4,10.7,58.9,12L58.9,12z M55.5,5.4c0-1.6-1-1.9-2.2-1.9h-2.1v4.1h2.1
	C54.5,7.6,55.5,6.9,55.5,5.4L55.5,5.4z M25.6,0.3H22v16.4h4.2V1c0-0.2-0.1-0.3-0.2-0.4C25.9,0.4,25.7,0.3,25.6,0.3L25.6,0.3z
	 M43.2,7.3h-5.3v3.3h2v2.9c-0.6,0.1-1.2,0.1-1.8,0.1c-3.1,0-4.8-2-4.8-5.1c0-3,1.4-5,4.5-5c1.3,0.1,2.6,0.3,3.8,0.9l1.7-2.8
	C42,0.6,39.9,0,37.5,0c-5.4,0-8.6,3.5-8.6,8.5c0,5.6,3.2,8.5,9.4,8.5c1.9,0,3.8-0.2,5.6-0.5V8c0-0.1,0-0.2,0-0.3
	c0-0.1-0.1-0.2-0.1-0.2c-0.1-0.1-0.1-0.1-0.2-0.2C43.4,7.3,43.3,7.3,43.2,7.3L43.2,7.3z M77.8,8.5c0,4.7-2.9,8.5-7.9,8.5
	c-5.4,0-8.2-3.8-8.2-8.5S64.6,0,69.9,0C75,0,77.8,3.8,77.8,8.5L77.8,8.5z M73.4,8.5c0-3.4-1.6-5-3.5-5c-2.2,0-3.8,1.6-3.8,5
	c0,3.5,1.6,5.1,3.8,5.1C71.8,13.5,73.4,12,73.4,8.5L73.4,8.5z M87,6.5c-1.4-0.4-2.6-0.9-2.6-1.7s0.9-1.4,2.4-1.4
	c1.3,0,2.4,0.5,3.6,1.2l2.3-2.6c-1-1-3.1-1.9-5.7-1.9c-4,0-7,1.9-7,5.3c0,3.2,2.8,4.1,5.1,4.8c2,0.6,3.5,0.9,3.5,2
	c0,1.2-1.3,1.4-2.4,1.4c-1.9,0-3.9-1-5-1.6l-1.9,3.3c1.2,0.8,3.7,1.8,6.5,1.8c4.3,0,7.1-2.3,7.1-5.7C93,8,89.6,7.2,87,6.5z M9.5,9.6
	L5.6,0.3H0v16.4h4.2V7.2l4,9.4h2.2l4.1-9.4v9.4h4.2V0.3h-5.2L9.5,9.6z">
 </path>
</svg>